<svg id="SvgjsSvg1006" width="459.00897216796875" height="330.0089416503906" xmlns="http://www.w3.org/2000/svg" version="1.1" xmlns:xlink="http://www.w3.org/1999/xlink" xmlns:svgjs="http://svgjs.com/svgjs"><defs id="SvgjsDefs1007"><marker id="SvgjsMarker1049" markerWidth="14" markerHeight="10" refX="10" refY="5" viewBox="0 0 14 10" orient="auto" markerUnits="userSpaceOnUse" stroke-dasharray="0,0"><path id="SvgjsPath1050" d="M0,0 L14,5 L0,10 L0,0" fill="#323232" stroke="#323232" stroke-width="1"></path></marker><marker id="SvgjsMarker1053" markerWidth="14" markerHeight="10" refX="10" refY="5" viewBox="0 0 14 10" orient="auto" markerUnits="userSpaceOnUse" stroke-dasharray="0,0"><path id="SvgjsPath1054" d="M0,0 L14,5 L0,10 L0,0" fill="#323232" stroke="#323232" stroke-width="1"></path></marker></defs><g id="SvgjsG1008" transform="translate(25.0089111328125,25.0089111328125)"><path id="SvgjsPath1009" d="M 0 0L 136 0L 136 280L 0 280Z" stroke="rgba(50,50,50,1)" stroke-width="2" fill="none"></path><path id="SvgjsPath1010" d="M 0 0L 136 0L 136 40L 0 40Z" stroke="rgba(50,50,50,1)" stroke-width="2" fill-opacity="1" fill="#ffffff"></path><g id="SvgjsG1011"><text id="SvgjsText1012" font-family="微软雅黑" text-anchor="middle" font-size="16px" width="116px" fill="#323232" font-weight="400" align="middle" lineHeight="125%" anchor="middle" family="微软雅黑" size="16px" weight="400" font-style="" opacity="1" y="8" transform="rotate(0)"><tspan id="SvgjsTspan1013" dy="20" x="68"><tspan id="SvgjsTspan1014" style="text-decoration:;">Begin</tspan></tspan></text></g></g><g id="SvgjsG1015" transform="translate(162.0089111328125,25.0089111328125)"><path id="SvgjsPath1016" d="M 0 0L 136 0L 136 280L 0 280Z" stroke="rgba(50,50,50,1)" stroke-width="2" fill="none"></path><path id="SvgjsPath1017" d="M 0 0L 136 0L 136 40L 0 40Z" stroke="rgba(50,50,50,1)" stroke-width="2" fill-opacity="1" fill="#ffffff"></path><g id="SvgjsG1018"><text id="SvgjsText1019" font-family="微软雅黑" text-anchor="middle" font-size="16px" width="116px" fill="#323232" font-weight="400" align="middle" lineHeight="125%" anchor="middle" family="微软雅黑" size="16px" weight="400" font-style="" opacity="1" y="8" transform="rotate(0)"><tspan id="SvgjsTspan1020" dy="20" x="68"><tspan id="SvgjsTspan1021" style="text-decoration:;">Commit</tspan></tspan></text></g></g><g id="SvgjsG1022" transform="translate(298.0089111328125,25.0089111328125)"><path id="SvgjsPath1023" d="M 0 0L 136 0L 136 280L 0 280Z" stroke="rgba(50,50,50,1)" stroke-width="2" fill="none"></path><path id="SvgjsPath1024" d="M 0 0L 136 0L 136 40L 0 40Z" stroke="rgba(50,50,50,1)" stroke-width="2" fill-opacity="1" fill="#ffffff"></path><g id="SvgjsG1025"><text id="SvgjsText1026" font-family="微软雅黑" text-anchor="middle" font-size="16px" width="116px" fill="#323232" font-weight="400" align="middle" lineHeight="125%" anchor="middle" family="微软雅黑" size="16px" weight="400" font-style="" opacity="1" y="8" transform="rotate(0)"><tspan id="SvgjsTspan1027" dy="20" x="68"><tspan id="SvgjsTspan1028" style="text-decoration:;">Rollback</tspan></tspan></text></g></g><g id="SvgjsG1029" transform="translate(45.0089111328125,113.0089111328125)"><path id="SvgjsPath1030" d="M 12 0L 68 0C 84 0 84 36 68 36L 12 36C -4 36 -4 0 12 0Z" stroke="rgba(50,50,50,1)" stroke-width="2" fill-opacity="1" fill="#ffffff"></path><g id="SvgjsG1031"><text id="SvgjsText1032" font-family="微软雅黑" text-anchor="middle" font-size="13px" width="60px" fill="#323232" font-weight="400" align="middle" lineHeight="125%" anchor="middle" family="微软雅黑" size="13px" weight="400" font-style="" opacity="1" y="8.375" transform="rotate(0)"><tspan id="SvgjsTspan1033" dy="16" x="40"><tspan id="SvgjsTspan1034" style="text-decoration:;">Message</tspan></tspan></text></g></g><g id="SvgjsG1035" transform="translate(183.5089111328125,96.0089111328125)"><path id="SvgjsPath1036" d="M 0 0L 100 0L 100 70L 0 70Z" stroke="rgba(50,50,50,1)" stroke-width="2" fill-opacity="1" fill="#ffffff"></path><g id="SvgjsG1037"><text id="SvgjsText1038" font-family="微软雅黑" text-anchor="middle" font-size="13px" width="80px" fill="#323232" font-weight="400" align="middle" lineHeight="125%" anchor="middle" family="微软雅黑" size="13px" weight="400" font-style="" opacity="1" y="25.375" transform="rotate(0)"><tspan id="SvgjsTspan1039" dy="16" x="50"><tspan id="SvgjsTspan1040" style="text-decoration:;">Send</tspan></tspan></text></g></g><g id="SvgjsG1041" transform="translate(317.0089111328125,178.0089111328125)"><path id="SvgjsPath1042" d="M 0 0L 100 0L 100 70L 0 70Z" stroke="rgba(50,50,50,1)" stroke-width="2" fill-opacity="1" fill="#ffffff"></path><g id="SvgjsG1043"><text id="SvgjsText1044" font-family="微软雅黑" text-anchor="middle" font-size="13px" width="80px" fill="#323232" font-weight="400" align="middle" lineHeight="125%" anchor="middle" family="微软雅黑" size="13px" weight="400" font-style="" opacity="1" y="25.375" transform="rotate(0)"><tspan id="SvgjsTspan1045" dy="16" x="50"><tspan id="SvgjsTspan1046" style="text-decoration:;">Cancel</tspan></tspan></text></g></g><g id="SvgjsG1047"><path id="SvgjsPath1048" d="M126.0089111328125 131.0089111328125L154.2589111328125 131.0089111328125L154.2589111328125 131.0089111328125L179.90891113281248 131.0089111328125" stroke="#323232" stroke-width="2" fill="none" marker-end="url(#SvgjsMarker1049)"></path></g><g id="SvgjsG1051"><path id="SvgjsPath1052" d="M85.0089111328125 150.0089111328125L85.0089111328125 213.0089111328125L313.4089111328125 213.0089111328125" stroke="#323232" stroke-width="2" fill="none" marker-end="url(#SvgjsMarker1053)"></path></g></svg>